# xmcd
#
# Track frame offsets: 
#        150
#        14671
#        29436
#        47043
#        59975
#        75713
#        86784
#        101760
#        112293
#        135059
#
# Disc length: 2026 seconds
#
# Revision: 0
# Processed by: cddbd v1.5.2PL0 Copyright (c) Steve Scherf et al.
# Submitted via: ExactAudioCopy v1.0b3
#
DISCID=8c07e80a
DTITLE=David Olney - Don't Try To Fight It
DYEAR=2017
DGENRE=Country
TTITLE0=If They Ever Let Me Out
TTITLE1=Innocent Heart
TTITLE2=Don't Try To Fight It
TTITLE3=Ferris Wheel
TTITLE4=Crack In The Wall
TTITLE5=Situation
TTITLE6=Sweet Sugaree
TTITLE7=Evermore
TTITLE8=Yesterday's News
TTITLE9=Big Top (Tornado)
EXTD=
EXTT0=
EXTT1=
EXTT2=
EXTT3=
EXTT4=
EXTT5=
EXTT6=
EXTT7=
EXTT8=
EXTT9=
PLAYORDER=
